<svg width="97" height="25" viewBox="0 0 97 25" fill="none" xmlns="http://www.w3.org/2000/svg">
<path fill-rule="evenodd" clip-rule="evenodd" d="M43 20.5C47.4786 20.5 51.0404 16.8801 51.0404 12.5C51.0404 8.11991 47.4786 4.5 43 4.5C38.5214 4.5 34.9596 8.11991 34.9596 12.5C34.9596 16.8801 38.5214 20.5 43 20.5ZM43 24.5C49.6274 24.5 55 19.1274 55 12.5C55 5.87258 49.6274 0.5 43 0.5C36.3726 0.5 31 5.87258 31 12.5C31 19.1274 36.3726 24.5 43 24.5Z" fill="url(#paint0_linear_5_761)"/>
<path d="M2.12563 8.36739V11.8424H6.39263V13.588H2.12563V18.3701H0V6.6299H7.1799V8.36739H2.12563Z" fill="white"/>
<path d="M19.6671 12.5C19.6671 13.3606 19.528 14.159 19.2499 14.8951C18.9769 15.6258 18.5885 16.2591 18.0847 16.795C17.5808 17.3309 16.9746 17.7503 16.2661 18.0535C15.5576 18.3511 14.7703 18.5 13.9043 18.5C13.0435 18.5 12.2589 18.3511 11.5504 18.0535C10.8418 17.7503 10.233 17.3309 9.72389 16.795C9.22004 16.2591 8.82903 15.6258 8.55086 14.8951C8.27269 14.159 8.1336 13.3606 8.1336 12.5C8.1336 11.6394 8.27269 10.8437 8.55086 10.113C8.82903 9.37686 9.22004 8.74087 9.72389 8.20501C10.233 7.66915 10.8418 7.25237 11.5504 6.95467C12.2589 6.65156 13.0435 6.5 13.9043 6.5C14.4816 6.5 15.0248 6.57037 15.5339 6.7111C16.043 6.84641 16.5102 7.04127 16.9353 7.29567C17.3604 7.54465 17.7409 7.85047 18.0768 8.21312C18.418 8.57036 18.7066 8.97091 18.9428 9.41475C19.179 9.85859 19.3574 10.3403 19.4782 10.8599C19.6041 11.3796 19.6671 11.9263 19.6671 12.5ZM17.5021 12.5C17.5021 11.8559 17.4181 11.2794 17.2502 10.7706C17.0822 10.2564 16.8434 9.8207 16.5338 9.46346C16.2241 9.10622 15.8462 8.83288 15.4001 8.64344C14.9592 8.45399 14.4606 8.35927 13.9043 8.35927C13.348 8.35927 12.8467 8.45399 12.4006 8.64344C11.9597 8.83288 11.5818 9.10622 11.2669 9.46346C10.9573 9.8207 10.7185 10.2564 10.5505 10.7706C10.3826 11.2794 10.2986 11.8559 10.2986 12.5C10.2986 13.1441 10.3826 13.7233 10.5505 14.2375C10.7185 14.7463 10.9573 15.1793 11.2669 15.5365C11.5818 15.8884 11.9597 16.159 12.4006 16.3484C12.8467 16.5379 13.348 16.6326 13.9043 16.6326C14.4606 16.6326 14.9592 16.5379 15.4001 16.3484C15.8462 16.159 16.2241 15.8884 16.5338 15.5365C16.8434 15.1793 17.0822 14.7463 17.2502 14.2375C17.4181 13.7233 17.5021 13.1441 17.5021 12.5Z" fill="white"/>
<path d="M29.0939 8.42422H25.6614V18.3701H23.5437V8.42422H20.1112V6.6299H29.0939V8.42422Z" fill="white"/>
<path d="M48.6208 12.5C48.6208 13.3606 48.4817 14.159 48.2035 14.8951C47.9306 15.6258 47.5422 16.2591 47.0384 16.795C46.5345 17.3309 45.9283 17.7503 45.2198 18.0535C44.5112 18.3511 43.724 18.5 42.858 18.5C41.9972 18.5 41.2126 18.3511 40.504 18.0535C39.7955 17.7503 39.1867 17.3309 38.6776 16.795C38.1737 16.2591 37.7827 15.6258 37.5045 14.8951C37.2264 14.159 37.0873 13.3606 37.0873 12.5C37.0873 11.6394 37.2264 10.8437 37.5045 10.113C37.7827 9.37686 38.1737 8.74087 38.6776 8.20501C39.1867 7.66915 39.7955 7.25237 40.504 6.95467C41.2126 6.65156 41.9972 6.5 42.858 6.5C43.4353 6.5 43.9785 6.57037 44.4876 6.7111C44.9967 6.84641 45.4638 7.04127 45.889 7.29567C46.3141 7.54465 46.6946 7.85047 47.0305 8.21312C47.3717 8.57036 47.6603 8.97091 47.8965 9.41475C48.1327 9.85859 48.3111 10.3403 48.4319 10.8599C48.5578 11.3796 48.6208 11.9263 48.6208 12.5ZM46.4558 12.5C46.4558 11.8559 46.3718 11.2794 46.2039 10.7706C46.0359 10.2564 45.7971 9.8207 45.4875 9.46346C45.1778 9.10622 44.7999 8.83288 44.3538 8.64344C43.9129 8.45399 43.4143 8.35927 42.858 8.35927C42.3016 8.35927 41.8004 8.45399 41.3543 8.64344C40.9134 8.83288 40.5355 9.10622 40.2206 9.46346C39.911 9.8207 39.6722 10.2564 39.5042 10.7706C39.3363 11.2794 39.2523 11.8559 39.2523 12.5C39.2523 13.1441 39.3363 13.7233 39.5042 14.2375C39.6722 14.7463 39.911 15.1793 40.2206 15.5365C40.5355 15.8884 40.9134 16.159 41.3543 16.3484C41.8004 16.5379 42.3016 16.6326 42.858 16.6326C43.4143 16.6326 43.9129 16.5379 44.3538 16.3484C44.7999 16.159 45.1778 15.8884 45.4875 15.5365C45.7971 15.1793 46.0359 14.7463 46.2039 14.2375C46.3718 13.7233 46.4558 13.1441 46.4558 12.5Z" fill="white"/>
<path d="M65.9556 15.6015C66.0711 15.6015 66.1734 15.6475 66.2626 15.7395L67.0972 16.6732C66.6353 17.2632 66.0658 17.7152 65.3888 18.0291C64.717 18.343 63.9087 18.5 62.964 18.5C62.119 18.5 61.358 18.3511 60.6809 18.0535C60.0091 17.7558 59.4344 17.3417 58.9568 16.8112C58.4792 16.2808 58.1118 15.6475 57.8546 14.9114C57.6027 14.1752 57.4767 13.3714 57.4767 12.5C57.4767 11.6177 57.6132 10.8112 57.8861 10.0805C58.159 9.34438 58.5422 8.7111 59.0355 8.18065C59.5341 7.6502 60.1272 7.23884 60.8147 6.94655C61.5023 6.64885 62.2633 6.5 63.0978 6.5C63.9271 6.5 64.6619 6.64073 65.3022 6.92219C65.9477 7.20365 66.4962 7.57172 66.9476 8.02639L66.239 9.04127C66.197 9.10622 66.1419 9.16306 66.0737 9.21177C66.0107 9.26049 65.9215 9.28484 65.806 9.28484C65.7273 9.28484 65.646 9.26319 65.562 9.21989C65.478 9.17118 65.3862 9.11434 65.2864 9.04939C65.1867 8.97903 65.0713 8.90325 64.94 8.82206C64.8088 8.74086 64.6566 8.66779 64.4834 8.60284C64.3102 8.53248 64.1082 8.47564 63.8772 8.43234C63.6515 8.38363 63.3891 8.35927 63.09 8.35927C62.5809 8.35927 62.1137 8.45399 61.6886 8.64344C61.2687 8.82747 60.9066 9.0981 60.6022 9.45534C60.2978 9.80717 60.0616 10.2402 59.8936 10.7544C59.7257 11.2632 59.6417 11.8451 59.6417 12.5C59.6417 13.1604 59.7309 13.7476 59.9094 14.2618C60.0931 14.776 60.3398 15.2091 60.6494 15.5609C60.9591 15.9127 61.3238 16.1834 61.7437 16.3728C62.1636 16.5568 62.615 16.6488 63.0978 16.6488C63.3865 16.6488 63.6463 16.6326 63.8772 16.6001C64.1134 16.5677 64.3286 16.5162 64.5228 16.4459C64.7222 16.3755 64.9086 16.2862 65.0818 16.1779C65.2602 16.0643 65.436 15.9263 65.6092 15.7639C65.6617 15.7152 65.7168 15.6773 65.7746 15.6502C65.8323 15.6177 65.8926 15.6015 65.9556 15.6015Z" fill="white"/>
<path d="M76.1194 15.6015C76.2349 15.6015 76.3372 15.6475 76.4264 15.7395L77.2609 16.6732C76.7991 17.2632 76.2296 17.7152 75.5526 18.0291C74.8808 18.343 74.0725 18.5 73.1278 18.5C72.2828 18.5 71.5217 18.3511 70.8447 18.0535C70.1729 17.7558 69.5982 17.3417 69.1206 16.8112C68.643 16.2808 68.2756 15.6475 68.0184 14.9114C67.7665 14.1752 67.6405 13.3714 67.6405 12.5C67.6405 11.6177 67.777 10.8112 68.0499 10.0805C68.3228 9.34438 68.7059 8.7111 69.1993 8.18065C69.6979 7.6502 70.291 7.23884 70.9785 6.94655C71.6661 6.64885 72.4271 6.5 73.2616 6.5C74.0909 6.5 74.8256 6.64073 75.466 6.92219C76.1115 7.20365 76.66 7.57172 77.1114 8.02639L76.4028 9.04127C76.3608 9.10622 76.3057 9.16306 76.2375 9.21177C76.1745 9.26049 76.0853 9.28484 75.9698 9.28484C75.8911 9.28484 75.8097 9.26319 75.7258 9.21989C75.6418 9.17118 75.5499 9.11434 75.4502 9.04939C75.3505 8.97903 75.235 8.90325 75.1038 8.82206C74.9726 8.74086 74.8204 8.66779 74.6472 8.60284C74.474 8.53248 74.2719 8.47564 74.041 8.43234C73.8153 8.38363 73.5529 8.35927 73.2537 8.35927C72.7446 8.35927 72.2775 8.45399 71.8524 8.64344C71.4325 8.82747 71.0704 9.0981 70.766 9.45534C70.4615 9.80717 70.2254 10.2402 70.0574 10.7544C69.8895 11.2632 69.8055 11.8451 69.8055 12.5C69.8055 13.1604 69.8947 13.7476 70.0732 14.2618C70.2569 14.776 70.5035 15.2091 70.8132 15.5609C71.1228 15.9127 71.4876 16.1834 71.9075 16.3728C72.3274 16.5568 72.7787 16.6488 73.2616 16.6488C73.5503 16.6488 73.8101 16.6326 74.041 16.6001C74.2772 16.5677 74.4924 16.5162 74.6866 16.4459C74.886 16.3755 75.0723 16.2862 75.2455 16.1779C75.424 16.0643 75.5998 15.9263 75.773 15.7639C75.8255 15.7152 75.8806 15.6773 75.9383 15.6502C75.9961 15.6177 76.0564 15.6015 76.1194 15.6015Z" fill="white"/>
<path d="M86.2832 15.6015C86.3986 15.6015 86.501 15.6475 86.5902 15.7395L87.4247 16.6732C86.9628 17.2632 86.3934 17.7152 85.7163 18.0291C85.0445 18.343 84.2363 18.5 83.2915 18.5C82.4465 18.5 81.6855 18.3511 81.0085 18.0535C80.3367 17.7558 79.762 17.3417 79.2843 16.8112C78.8067 16.2808 78.4393 15.6475 78.1822 14.9114C77.9302 14.1752 77.8043 13.3714 77.8043 12.5C77.8043 11.6177 77.9407 10.8112 78.2137 10.0805C78.4866 9.34438 78.8697 8.7111 79.3631 8.18065C79.8617 7.6502 80.4548 7.23884 81.1423 6.94655C81.8298 6.64885 82.5909 6.5 83.4254 6.5C84.2546 6.5 84.9894 6.64073 85.6297 6.92219C86.2753 7.20365 86.8238 7.57172 87.2751 8.02639L86.5666 9.04127C86.5246 9.10622 86.4695 9.16306 86.4013 9.21177C86.3383 9.26049 86.2491 9.28484 86.1336 9.28484C86.0549 9.28484 85.9735 9.26319 85.8895 9.21989C85.8056 9.17118 85.7137 9.11434 85.614 9.04939C85.5143 8.97903 85.3988 8.90325 85.2676 8.82206C85.1364 8.74086 84.9842 8.66779 84.811 8.60284C84.6378 8.53248 84.4357 8.47564 84.2048 8.43234C83.9791 8.38363 83.7167 8.35927 83.4175 8.35927C82.9084 8.35927 82.4413 8.45399 82.0162 8.64344C81.5963 8.82747 81.2342 9.0981 80.9297 9.45534C80.6253 9.80717 80.3891 10.2402 80.2212 10.7544C80.0532 11.2632 79.9693 11.8451 79.9693 12.5C79.9693 13.1604 80.0585 13.7476 80.2369 14.2618C80.4206 14.776 80.6673 15.2091 80.977 15.5609C81.2866 15.9127 81.6514 16.1834 82.0713 16.3728C82.4912 16.5568 82.9425 16.6488 83.4254 16.6488C83.7141 16.6488 83.9738 16.6326 84.2048 16.6001C84.441 16.5677 84.6562 16.5162 84.8503 16.4459C85.0498 16.3755 85.2361 16.2862 85.4093 16.1779C85.5878 16.0643 85.7636 15.9263 85.9368 15.7639C85.9893 15.7152 86.0444 15.6773 86.1021 15.6502C86.1598 15.6177 86.2202 15.6015 86.2832 15.6015Z" fill="white"/>
<path d="M92.5755 12.5325C92.9639 12.5325 93.3025 12.4838 93.5911 12.3863C93.8798 12.2835 94.1186 12.1401 94.3075 11.956C94.5017 11.7666 94.6461 11.5392 94.7405 11.274C94.835 11.0034 94.8823 10.703 94.8823 10.3728C94.8823 10.0589 94.835 9.77469 94.7405 9.5203C94.6461 9.2659 94.5044 9.04939 94.3154 8.87077C94.1265 8.69215 93.8877 8.55683 93.599 8.46482C93.3103 8.36739 92.9692 8.31867 92.5755 8.31867H90.9931V12.5325H92.5755ZM92.5755 6.6299C93.3366 6.6299 93.9953 6.72192 94.5516 6.90595C95.1079 7.08999 95.5672 7.34709 95.9293 7.67727C96.2915 8.00744 96.5591 8.40257 96.7323 8.86265C96.9108 9.32273 97 9.82611 97 10.3728C97 10.9411 96.9082 11.4635 96.7245 11.9398C96.5408 12.4107 96.2652 12.8166 95.8978 13.1576C95.5304 13.4986 95.0686 13.7639 94.5122 13.9533C93.9611 14.1428 93.3156 14.2375 92.5755 14.2375H90.9931V18.3701H88.8754V6.6299H92.5755Z" fill="white"/>
<defs>
<linearGradient id="paint0_linear_5_761" x1="31" y1="12.5" x2="55" y2="12.5" gradientUnits="userSpaceOnUse">
<stop stop-color="#FF8C21"/>
<stop offset="1" stop-color="#FF7918"/>
</linearGradient>
</defs>
</svg>
